<svg width="381" height="72" viewBox="0 0 381 72" fill="none" xmlns="http://www.w3.org/2000/svg">
<path d="M348.883 32.3573C306.618 57.8795 245.357 71.4966 192.612 71.4966C118.656 71.4966 52.0761 49.0868 1.70597 11.815C-2.25145 8.88409 1.29438 4.88977 6.04331 7.17224C60.4025 33.0835 127.615 48.6718 197.044 48.6718C243.869 48.6718 295.379 40.735 342.741 24.2649C349.896 21.7749 355.88 28.1036 348.883 32.3573Z" fill="#FF9900"/>
<path d="M364.193 15.7869C359.736 10.0716 334.62 13.0866 323.347 14.4236C319.913 14.8431 319.388 11.8544 322.482 9.7046C342.485 -4.37384 375.309 -0.310227 379.137 4.4088C382.964 9.15406 378.14 42.0562 359.343 57.7601C356.459 60.172 353.706 58.8874 354.991 55.689C359.212 45.1498 368.676 21.5284 364.193 15.7869Z" fill="#FF9900"/>
</svg>
