<svg width="1019" height="1474" viewBox="0 0 1019 1474" fill="none" xmlns="http://www.w3.org/2000/svg">
<path d="M478.015 1.15735C407.482 6.35735 345.482 23.024 284.682 53.1573C240.282 75.024 209.615 95.6907 171.349 129.157C81.0821 208.224 18.6821 325.824 4.81547 443.824C3.61547 453.557 2.01547 466.491 1.3488 472.357C-1.71787 497.024 0.682135 553.824 6.1488 587.691C18.9488 666.491 47.6155 737.691 92.6821 802.357C96.4155 807.824 103.749 818.891 108.682 827.024C113.615 835.024 121.482 847.691 126.015 855.024C133.215 866.624 164.282 916.624 185.882 951.691C189.749 957.957 198.282 971.691 204.949 982.357C211.482 993.024 221.882 1009.82 228.015 1019.69C234.149 1029.56 245.882 1048.49 254.015 1061.69C262.149 1074.89 279.882 1103.42 293.349 1125.02C306.682 1146.62 323.882 1174.22 331.349 1186.36C338.815 1198.49 358.415 1229.96 374.815 1256.36C413.082 1318.09 429.882 1345.29 453.349 1383.02C463.749 1399.82 478.015 1423.02 485.082 1434.36C501.749 1461.42 509.215 1473.02 509.882 1473.02C510.149 1473.02 513.215 1468.36 516.682 1462.62C520.149 1457.02 524.415 1450.22 526.015 1447.69C527.615 1445.16 532.949 1436.76 537.615 1429.02C542.415 1421.29 551.882 1405.96 558.682 1395.02C565.482 1383.96 579.749 1361.02 590.282 1343.96C606.549 1317.56 624.416 1288.62 672.682 1211.02C685.082 1191.16 810.949 988.224 868.682 895.024C896.416 850.224 923.349 807.424 928.682 799.691C944.016 777.291 953.082 761.824 964.816 738.357C993.482 680.891 1009.62 625.557 1016.82 559.824C1019.35 536.224 1018.95 471.957 1016.02 451.024C1006.82 382.891 988.549 324.357 960.016 271.691C947.216 248.091 945.349 244.891 933.882 227.691C863.349 121.691 754.949 45.424 631.749 15.1573C610.149 9.82401 604.282 8.75735 577.349 5.15735C540.149 0.0906802 509.615 -1.24265 478.015 1.15735Z" fill="black"/>
</svg>
