<svg width="110" height="110" viewBox="0 0 110 110" fill="none" xmlns="http://www.w3.org/2000/svg">
<path d="M35.9375 0.0148721H17.1875C15.0202 -0.0773151 12.8561 0.258755 10.8188 1.00384C8.78158 1.74893 6.91125 2.88842 5.31485 4.35711C3.71846 5.82579 2.42733 7.59485 1.51534 9.56305C0.603361 11.5313 0.0884245 13.66 0 15.8274V93.5774C0.0884245 95.7448 0.603361 97.8735 1.51534 99.8417C2.42733 101.81 3.71846 103.579 5.31485 105.048C6.91125 106.516 8.78158 107.656 10.8188 108.401C12.8561 109.146 15.0202 109.482 17.1875 109.39H35.9375C37.1807 109.39 38.373 108.896 39.2521 108.017C40.1311 107.138 40.625 105.946 40.625 104.702C40.625 103.459 40.1311 102.267 39.2521 101.388C38.373 100.509 37.1807 100.015 35.9375 100.015H17.1875C15.3317 100.176 13.485 99.6171 12.0304 98.4534C10.5758 97.2898 9.62493 95.6108 9.375 93.7649V15.8274C9.62493 13.9814 10.5758 12.3025 12.0304 11.1388C13.485 9.97514 15.3317 9.41601 17.1875 9.57738H35.9375C37.1807 9.57738 38.373 9.08351 39.2521 8.20443C40.1311 7.32535 40.625 6.13308 40.625 4.88988C40.625 3.64667 40.1311 2.45439 39.2521 1.57531C38.373 0.696233 37.1807 0.202376 35.9375 0.202376V0.0148721Z" fill="black"/>
<path d="M79.6877 25.0149C79.0719 25.012 78.4616 25.1321 77.8928 25.3682C77.3239 25.6044 76.808 25.9517 76.3752 26.3899C75.4974 27.2688 75.0044 28.4602 75.0044 29.7024C75.0044 30.9446 75.4974 32.136 76.3752 33.0149L98.0627 54.7024L76.3752 76.3899C75.9147 76.819 75.5453 77.3366 75.2891 77.9115C75.0329 78.4865 74.8951 79.1073 74.884 79.7366C74.8729 80.366 74.9887 80.9912 75.2245 81.5749C75.4602 82.1586 75.8111 82.6888 76.2562 83.1339C76.7014 83.579 77.2316 83.9299 77.8152 84.1657C78.3989 84.4014 79.0241 84.5172 79.6535 84.5061C80.2829 84.495 80.9036 84.3572 81.4786 84.101C82.0536 83.8448 82.5711 83.4755 83.0002 83.0149L108 58.0149C108.878 57.136 109.371 55.9446 109.371 54.7024C109.371 53.4602 108.878 52.2688 108 51.3899L83.0002 26.3899C82.5675 25.9517 82.0515 25.6044 81.4827 25.3682C80.9139 25.1321 80.3036 25.012 79.6877 25.0149Z" fill="black"/>
<path d="M104.688 50.0149H35.9375C34.6943 50.0149 33.502 50.5088 32.6229 51.3878C31.7439 52.2669 31.25 53.4592 31.25 54.7024C31.25 55.9456 31.7439 57.1379 32.6229 58.017C33.502 58.896 34.6943 59.3899 35.9375 59.3899H104.688C105.931 59.3899 107.123 58.896 108.002 58.017C108.881 57.1379 109.375 55.9456 109.375 54.7024C109.375 53.4592 108.881 52.2669 108.002 51.3878C107.123 50.5088 105.931 50.0149 104.688 50.0149Z" fill="black"/>
</svg>
