<svg viewBox="0 0 114 42.01" xmlns="http://www.w3.org/2000/svg">

                <polygon class="mbLogoRed" points="17.8 3.8 23.5 16.4 31.1 0.2 39.8 0.2 45.6 42 34.4 42 32.1 24.9 23.5 42 15.6 24.9 17.8 3.8"></polygon>
                <polygon class="mbLogoRed" points="4.6 0.2 0 42 10.6 42 15.2 0.2 4.6 0.2"></polygon>
                <polygon class="mbLogoWhite" points="47.8 0.2 59.2 0.2 59.2 5.8 53.4 5.8 53.4 8 57.7 8 57.7 13.6 53.4 13.6 53.4 15.8 59.2 15.8 59.2 21.4 47.8 21.4 47.8 0.2"></polygon>
                <polygon class="mbLogoWhite" points="61.5 0.2 74.6 0.2 74.5 5.5 70.8 5.5 70.8 21.4 65.3 21.4 65.3 5.5 61.5 5.5 61.5 0.2"></polygon>
                <path class="mbLogoWhite" d="M91.2,7c0-4.5-3-6.8-7.2-6.8H76.7V21.4h5.5V12.6h.1L86,21.3h6.3l-4.1-9.2a6,6,0,0,0,3-5.1m-8.9,3.2V4.9c2.1,0,3.3.7,3.3,2.6s-1.3,2.6-3.3,2.6"></path>
                <path class="mbLogoWhite" d="M103.3,0a10.8,10.8,0,1,0,10.6,11v-.2A10.7,10.7,0,0,0,103.3,0h0m0,16a5.2,5.2,0,0,1,0-10.4,5.25,5.25,0,0,1,0,10.5"></path>
                <path class="mbLogoWhite" d="M63.4,34.4a3.61,3.61,0,0,0,1.5-3,3.8,3.8,0,0,0-3.47-4.1,3.32,3.32,0,0,0-.63,0H51V42h9.7a5.46,5.46,0,0,0,3.5-1,3.62,3.62,0,0,0,1.2-2.9,3.74,3.74,0,0,0-2-3.7M53.2,29.7H61a1.75,1.75,0,0,1,1.3.5,1.94,1.94,0,0,1,0,2.6,1.76,1.76,0,0,1-1.3.5H53.2Zm7.5,10H53.2v-4H61c1.4,0,2.1.6,2.1,2s-.8,1.9-2.4,1.9"></path>
                <path class="mbLogoWhite" d="M73,27.3,66.4,42h2.2L70,38.7h8.3L79.9,42h2.2L75.5,27.3Zm-1.7,9.1,3-6.8,3,6.8Z"></path>
                <polygon class="mbLogoWhite" points="94.1 42 86.3 30.4 86.3 42 84 42 84 27.3 86.7 27.3 94.5 39 94.5 27.3 96.8 27.3 96.8 41.9 96.8 42 94.1 42"></polygon>
                <polygon class="mbLogoWhite" points="113.9 41.8 114 42 111.1 42 105.3 34.4 102.6 37.5 102.6 42 100.3 42 100.3 27.3 102.6 27.3 102.6 34.7 110.2 27.3 113.4 27.3 107 32.9 113.9 41.8"></polygon>
            </svg>