<?xml version="1.0" standalone="no"?>
<!DOCTYPE svg PUBLIC "-//W3C//DTD SVG 20010904//EN"
 "http://www.w3.org/TR/2001/REC-SVG-20010904/DTD/svg10.dtd">
<svg version="1.0" xmlns="http://www.w3.org/2000/svg"
 width="700.000000pt" height="700.000000pt" viewBox="0 0 700.000000 700.000000"
 preserveAspectRatio="xMidYMid meet">
<metadata>
Created by potrace 1.14, written by Peter Selinger 2001-2017
</metadata>
<g transform="translate(0.000000,700.000000) scale(0.100000,-0.100000)"
fill="#000000" stroke="none">
<path d="M3520 6673 c-120 -7 -261 -25 -369 -49 -480 -107 -818 -404 -925
-815 -40 -150 -49 -244 -43 -432 4 -142 9 -190 31 -272 62 -240 235 -486 508
-720 117 -100 153 -128 508 -392 245 -182 305 -234 392 -341 111 -138 148
-258 128 -413 -27 -217 -135 -298 -431 -323 -243 -21 -642 77 -988 243 -36 17
-66 29 -67 28 -5 -5 -194 -749 -194 -762 0 -16 224 -122 377 -179 179 -66 462
-132 678 -157 132 -15 474 -15 600 0 275 33 510 115 710 246 330 216 505 579
505 1046 0 274 -57 457 -217 698 -66 99 -237 279 -371 392 -52 43 -216 161
-366 263 -322 219 -432 302 -543 411 -112 110 -146 181 -151 315 -4 92 -3 97
30 160 25 48 46 73 85 101 106 74 274 106 503 96 177 -8 329 -35 583 -104 114
-30 209 -54 211 -52 3 4 67 801 66 826 0 23 -416 132 -598 157 -186 26 -476
39 -652 29z"/>
</g>
</svg>
