<svg width="55" height="20" viewBox="0 0 55 20" fill="none" xmlns="http://www.w3.org/2000/svg">
<path d="M1.28943 7.99512H3.5261L5.05387 6.64457H6.66721L7.69999 7.99512L10.6394 8.22735L11.5805 6.64457L12.6928 7.93401H14.1044L15.4611 6.64457L15.8705 7.4329L16.9278 7.99512L26.51 8.22735L26.8033 5.81957H28.215V7.87901L32.8411 7.93401L33.5928 7.41457L37.3755 8.22735L39.1233 7.02346L41.1278 6.58345L41.6961 7.99512L45.5767 7.75679L45.8517 6.05179L48.1922 8.22735H50.2578V0.765678H48.1922L47.5567 2.53179L45.5767 0.527344L42.9611 0.765678L42.6739 2.53179L40.7978 0.527344L34.9555 0.942899L33.5805 1.46846L32.8411 0.527344L30.6594 0.820677L28.8628 0.765678L22.3361 0.820677L15.1678 0.527344L13.9883 3.22846L12.1611 0.527344L8.75721 0.942899L8.6961 2.00012L6.9361 0.527344H4.28998L1.28943 7.99512Z" fill="white"/>
<path d="M12.8724 18.282H19.4565L21.2373 17.2742L22.8659 18.5172C22.8659 18.5172 26.0278 18.2233 26.1225 18.282C26.2167 18.3406 26.6285 16.283 26.6285 16.283L29.568 15.9304L30.0489 18.2233L32.0992 18.282L32.8411 16.1657L34.2118 16.283L34.958 18.5166L47.1442 18.2227L53.493 18.1053L54.4922 16.577L53.9532 14.4821V11.286L22.7486 10.9333L20.8089 12.301L19.1632 10.9333L12.873 11.1686V18.282H12.8724Z" fill="white"/>
<path d="M4.74835 4.71349H6.66724L5.7078 2.26904L4.74835 4.71349Z" fill="#306FC5"/>
<path d="M14.9539 12.9146V14.0451H18.1806V15.2673H14.9539V16.5751H18.535L20.1911 14.7418L18.6206 12.9146H14.9539Z" fill="#306FC5"/>
<path d="M40.1684 2.26904L39.1234 4.71349H41.1278L40.1684 2.26904Z" fill="#306FC5"/>
<path d="M24.2916 17.2718V12.3035L22.0244 14.7418L24.2916 17.2718Z" fill="#306FC5"/>
<path d="M28.5658 13.6974C28.4784 13.1737 28.1295 12.9121 27.6057 12.9121H25.7742V14.4827H27.6937C28.2162 14.4827 28.5658 14.2211 28.5658 13.6974Z" fill="#306FC5"/>
<path d="M34.672 14.3085C34.8468 14.2211 34.9341 13.959 34.9341 13.698C35.0215 13.3491 34.8468 13.1743 34.672 13.0875C34.4978 13.0001 34.2356 13.0001 33.9747 13.0001H32.2294V14.3965H33.9747C34.2356 14.3959 34.4978 14.3959 34.672 14.3085Z" fill="#306FC5"/>
<path d="M47.2352 0V1.04683L46.7121 0H42.6122V1.04683L42.0884 0H36.5047C35.5453 0 34.7594 0.174778 34.0621 0.523722V0H30.1363V0.0873887V0.523722C29.7 0.174778 29.1769 0 28.479 0H14.432L13.4719 2.18106L12.5125 0H9.372H8.063V1.04683L7.62667 0H7.53928H3.78828L2.04294 4.10056L0.0366667 8.55006L0 8.63744H0.0366667H4.48617H4.54178L4.57356 8.55006L5.09728 7.24167H6.2315L6.75522 8.63744H11.8146V8.55006V7.59061L12.2509 8.63744H14.7809L15.2167 7.59061V8.55006V8.63744H17.2236H27.2568H27.3442V6.369H27.5189C27.6931 6.369 27.6931 6.369 27.6931 6.63056V8.55006H33.9747V8.02633C34.4984 8.2885 35.2831 8.55006 36.3299 8.55006H38.9473L39.4711 7.15428H40.6921L41.2158 8.55006H46.2758V7.678V7.24167L47.0611 8.55006H47.2352H47.3226H51.1616V0H47.2352ZM17.6599 7.32906H16.7872H16.2641V6.80595V2.53061L16.1767 2.73044V2.728L14.1472 7.32906H14.0831H13.6162H12.8614L10.7678 2.53061V7.32906H7.80144L7.19094 6.02067H4.22461L3.6135 7.32906H2.07961L4.66033 1.22161H6.84139L9.284 7.06689V1.22161H9.80711H11.5952L11.6362 1.309H11.6392L12.7398 3.70456L13.53 5.49939L13.5581 5.40894L15.3028 1.22161H17.6587L17.6599 7.32906ZM23.6799 2.53061H20.2773V3.66483H23.5926V4.88644H20.2773V6.10806H23.6799V7.41644H18.7941V1.22161H23.6799V2.53061ZM29.9029 4.78011C29.9053 4.78194 29.9078 4.78378 29.9108 4.78561C29.9438 4.82045 29.9719 4.85528 29.9964 4.88889C30.1632 5.10767 30.2989 5.434 30.3056 5.91189C30.3062 5.92044 30.3062 5.92839 30.3068 5.93633C30.3068 5.94122 30.3074 5.9455 30.3074 5.95039C30.3074 5.95344 30.3074 5.95528 30.3074 5.95772C30.3093 6.006 30.3105 6.05489 30.3105 6.10806V7.32967H29.0021V6.63117C29.0021 6.28222 29.0021 5.7585 28.7399 5.40956C28.6574 5.32706 28.5743 5.27267 28.4833 5.23417C28.3525 5.14922 28.105 5.148 27.6937 5.148H26.1226V7.32906H24.64V1.22161H27.9553C28.7399 1.22161 29.2637 1.22161 29.7 1.48317C30.1278 1.73983 30.3857 2.16578 30.3954 2.83983C30.3753 3.76811 29.7794 4.27778 29.3511 4.4495C29.3511 4.4495 29.6419 4.50817 29.9029 4.78011ZM32.8405 7.32906H31.3573V1.22161H32.8405V7.32906ZM49.8532 7.32906H47.9337L45.1422 2.70478V6.54378L45.133 6.53461V7.33272H43.659V7.32906H42.1758L41.6521 6.02067H38.5984L38.0747 7.41644H36.4173C35.7201 7.41644 34.8468 7.24228 34.3237 6.71856C33.7999 6.19483 33.539 5.49694 33.539 4.36333C33.539 3.49067 33.7132 2.618 34.3237 1.92011C34.7594 1.39639 35.5453 1.22222 36.5047 1.22222H37.9011V2.53061H36.5047C35.981 2.53061 35.7201 2.61739 35.3705 2.87955C35.1096 3.14111 34.9348 3.66422 34.9348 4.27533C34.9348 4.97322 35.0222 5.40956 35.3705 5.7585C35.6327 6.02067 35.9816 6.10806 36.4179 6.10806H37.0284L39.0347 1.30961H39.9074H41.2158L43.659 7.15489V6.85667V4.88644V4.71228V1.30961H45.8401L48.3694 5.58433V1.30961H49.8532V7.32906Z" fill="white"/>
<path d="M28.6587 3.7657C28.6843 3.7382 28.7069 3.70764 28.7265 3.6722C28.8053 3.54692 28.8964 3.32203 28.8475 3.01403C28.8457 2.98592 28.8402 2.95964 28.8341 2.93458C28.8322 2.92786 28.8328 2.92114 28.831 2.91442H28.8304C28.787 2.7647 28.6764 2.67303 28.5658 2.61742C28.391 2.53064 28.1295 2.53064 27.8673 2.53064H26.1219V3.92703H27.8673C28.1288 3.92703 28.391 3.92703 28.5658 3.83964C28.5921 3.8262 28.6153 3.80847 28.6379 3.78769V3.78892C28.6379 3.78892 28.6471 3.77914 28.6587 3.7657Z" fill="#306FC5"/>
<path d="M55 16.0533C55 15.4428 54.8259 14.8317 54.5643 14.3953V10.4702H54.56V10.208C54.56 10.208 50.9031 10.208 50.3592 10.208C49.8154 10.208 49.1547 10.7311 49.1547 10.7311V10.208H45.1416C44.5305 10.208 43.7458 10.3828 43.3962 10.7311V10.208H36.2432V10.4702V10.7311C35.7201 10.2954 34.7594 10.208 34.3237 10.208H29.6126V10.4702V10.7311C29.1763 10.2954 28.1289 10.208 27.6051 10.208H22.3716L21.15 11.517L20.0157 10.208H19.6503H19.0557H12.1636V10.4702V11.1595V19.0196H19.841L21.1023 17.7577L22.1956 19.0196H22.283H26.7068H26.9072H26.9946H27.0814V18.147V17.0127H27.5177C28.1276 17.0127 28.9135 17.0127 29.524 16.7506V18.9316V19.1064H33.4498V18.9316V16.838H33.624C33.8861 16.838 33.8861 16.838 33.8861 17.0995V18.9316V19.1064H45.7509C46.5367 19.1064 47.3214 18.9316 47.7577 18.5827V18.9316V19.1064H51.5094C52.294 19.1064 53.0799 19.019 53.603 18.6701C54.406 18.1879 54.9126 17.3348 54.9878 16.3179C54.9915 16.288 54.9957 16.2574 54.9982 16.2275L54.9933 16.2226C54.9976 16.1663 55 16.1101 55 16.0533ZM27.519 15.5302H25.7736V15.7911V16.3148V16.8386V17.798H22.9063L21.2374 15.8785L21.2319 15.8846L21.1506 15.7905L19.2311 17.7974H13.6474V11.6906H19.3179L20.867 13.3876L21.1927 13.7427L21.2367 13.6968L23.0689 11.6906H27.6925C28.5896 11.6906 29.5949 11.9118 29.9756 12.8248C30.0215 13.0057 30.0477 13.2067 30.0477 13.4347C30.0484 15.1806 28.8267 15.5302 27.519 15.5302ZM36.2432 15.4428C36.4174 15.7037 36.5047 16.0533 36.5047 16.577V17.798H35.0216V17.0133C35.0216 16.6638 35.0216 16.0533 34.7594 15.7911C34.5852 15.5302 34.2357 15.5302 33.7126 15.5302H32.1426V17.798H30.6595V11.6038H33.9747C34.672 11.6038 35.2831 11.6038 35.7201 11.8653C36.1558 12.1275 36.5047 12.5638 36.5047 13.2617C36.5047 14.2212 35.8942 14.7449 35.4579 14.9197C35.8942 15.0932 36.1558 15.268 36.2432 15.4428ZM42.2632 12.9122H38.8606V14.0464H42.1759V15.268H38.8606V16.4896H42.2632V17.798H37.3774V11.6038H42.2632V12.9122ZM45.9269 17.798H43.1347V16.4896H45.9269C46.1878 16.4896 46.3632 16.4896 46.538 16.3148C46.6254 16.2275 46.7121 16.0533 46.7121 15.8785C46.7121 15.7037 46.6254 15.5302 46.538 15.4428C46.4506 15.3554 46.2758 15.268 46.0142 15.268C44.6185 15.1806 42.9605 15.268 42.9605 13.3491C42.9605 12.4765 43.4842 11.517 45.0542 11.517H47.9331V13.0002H45.229C44.9674 13.0002 44.7926 13.0002 44.6179 13.0876C44.4437 13.175 44.4437 13.3497 44.4437 13.5239C44.4437 13.7855 44.6179 13.8728 44.792 13.9596C44.9668 14.047 45.141 14.047 45.3157 14.047H46.101C46.8863 14.047 47.4094 14.2218 47.7584 14.5707C48.0199 14.8323 48.1947 15.2686 48.1947 15.8791C48.1953 17.1869 47.41 17.798 45.9269 17.798ZM53.4301 17.1869C53.0817 17.5365 52.4706 17.798 51.598 17.798H48.807V16.4896H51.598C51.8595 16.4896 52.0349 16.4896 52.2091 16.3148C52.2959 16.2275 52.3839 16.0533 52.3839 15.8785C52.3839 15.7037 52.2965 15.5302 52.2091 15.4428C52.1217 15.3554 51.9475 15.268 51.6853 15.268C50.2902 15.1806 48.6316 15.268 48.6316 13.3491C48.6316 12.5198 49.1058 11.7706 50.2761 11.5482C50.4161 11.5286 50.564 11.5164 50.7259 11.5164H53.6049V12.9996H51.6853H50.9875H50.9001C50.6385 12.9996 50.4637 12.9996 50.2896 13.087C50.2016 13.1743 50.1142 13.3491 50.1142 13.5233C50.1142 13.7848 50.2016 13.8722 50.4637 13.959C50.6379 14.0464 50.8127 14.0464 50.9875 14.0464H51.0742H51.7727C52.1541 14.0464 52.4425 14.0935 52.7065 14.1863C52.9479 14.2737 53.7485 14.6318 53.9269 15.5656C53.9422 15.6634 53.9538 15.7655 53.9538 15.8785C53.9532 16.4022 53.7784 16.8386 53.4301 17.1869Z" fill="white"/>
<path d="M47.2352 0V1.04683L46.7121 0H42.6122V1.04683L42.0884 0H36.5047C35.5453 0 34.7594 0.174778 34.0621 0.523722V0H30.1363V0.0873887V0.523722C29.7 0.174778 29.1769 0 28.479 0H14.432L13.4719 2.18106L12.5125 0H9.372H8.063V1.04683L7.62667 0H7.53928H3.78828L2.04294 4.10056L0.0366667 8.55006L0 8.63744H0.0366667H4.48617H4.54178L4.57356 8.55006L5.09728 7.24167H6.2315L6.75522 8.63744H11.8146V8.55006V7.59061L12.2509 8.63744H14.7809L15.2167 7.59061V8.55006V8.63744H17.2236H27.2568H27.3442V6.369H27.5189C27.6931 6.369 27.6931 6.369 27.6931 6.63056V8.55006H33.9747V8.02633C34.4984 8.2885 35.2831 8.55006 36.3299 8.55006H38.9473L39.4711 7.15428H40.6921L41.2158 8.55006H46.2758V7.678V7.24167L47.0611 8.55006H47.2352H47.3226H51.1616V0H47.2352ZM16.7872 7.32906H16.2641V6.80595V2.53061L16.1767 2.73044V2.728L14.1472 7.32906H14.0831H13.6162H12.8614L10.7678 2.53061V7.32906H7.80144L7.19094 6.02067H4.22461L3.6135 7.32906H2.07961L4.66033 1.22161H6.84139L9.284 7.06689V1.22161H9.80711H11.5952L11.6362 1.309H11.6392L12.7398 3.70456L13.53 5.49939L13.5581 5.40894L15.3028 1.22161H17.6587V7.32845L16.7872 7.32906ZM23.6799 2.53061H20.2773V3.66483H23.5926V4.88644H20.2773V6.10806H23.6799V7.41644H18.7941V1.22161H23.6799V2.53061ZM29.9029 4.78011C29.9053 4.78194 29.9078 4.78378 29.9108 4.78561C29.9438 4.82045 29.9719 4.85528 29.9964 4.88889C30.1632 5.10767 30.2989 5.434 30.3056 5.91189C30.3062 5.92044 30.3062 5.92839 30.3068 5.93633C30.3068 5.94122 30.3074 5.9455 30.3074 5.95039C30.3074 5.95344 30.3074 5.95528 30.3074 5.95772C30.3093 6.006 30.3105 6.05489 30.3105 6.10806V7.32967H29.0021V6.63117C29.0021 6.28222 29.0021 5.7585 28.7399 5.40956C28.6574 5.32706 28.5743 5.27267 28.4833 5.23417C28.3525 5.14922 28.105 5.148 27.6937 5.148H26.1226V7.32906H24.64V1.22161H27.9553C28.7399 1.22161 29.2637 1.22161 29.7 1.48317C30.1278 1.73983 30.3857 2.16578 30.3954 2.83983C30.3753 3.76811 29.7794 4.27778 29.3511 4.4495C29.3504 4.45011 29.6419 4.50817 29.9029 4.78011ZM32.8405 7.32906H31.3573V1.22161H32.8405V7.32906ZM48.3688 1.30961H49.8526V7.32906H47.9331L45.1416 2.70478V6.54378L45.1324 6.53461V7.33272H43.6584V7.32906H42.1752L41.6515 6.02067H38.5978L38.0741 7.41644H36.4167C35.7194 7.41644 34.8462 7.24228 34.3231 6.71856C33.7993 6.19483 33.5384 5.49694 33.5384 4.36333C33.5384 3.49067 33.7126 2.618 34.3231 1.92011C34.7588 1.39639 35.5447 1.22222 36.5041 1.22222H37.9005V2.53061H36.5041C35.9804 2.53061 35.7194 2.61739 35.3699 2.87955C35.1089 3.14111 34.9342 3.66422 34.9342 4.27533C34.9342 4.97322 35.0216 5.40956 35.3699 5.7585C35.6321 6.02067 35.981 6.10806 36.4173 6.10806H37.0278L39.0341 1.30961H39.9068H41.2152L43.6584 7.15489V6.85667V4.88644V4.71228V1.30961H45.8394L48.3688 5.58433V1.30961Z" fill="#306FC5"/>
<path d="M54.5643 14.396V10.4702H54.56V10.208C54.56 10.208 50.9031 10.208 50.3592 10.208C49.8154 10.208 49.1547 10.7311 49.1547 10.7311V10.208H45.1416C44.5305 10.208 43.7458 10.3828 43.3962 10.7311V10.208H36.2432V10.4702V10.7311C35.7201 10.2954 34.7594 10.208 34.3237 10.208H29.6126V10.4702V10.7311C29.1763 10.2954 28.1289 10.208 27.6051 10.208H22.3716L21.15 11.517L20.0157 10.208H19.6503H19.0557H12.1636V10.4702V11.1595V19.0196H19.841L21.1023 17.7577L22.1956 19.0196H22.283H26.7068H26.9072H26.9946H27.0814V18.147V17.0127H27.5177C28.1276 17.0127 28.9135 17.0127 29.524 16.7506V18.9316V19.1064H33.4498V18.9316V16.838H33.624C33.8861 16.838 33.8861 16.838 33.8861 17.0995V18.9316V19.1064H45.7509C46.5367 19.1064 47.3214 18.9316 47.7577 18.5827V18.9316V19.1064H51.5094C52.294 19.1064 53.0799 19.019 53.603 18.6701C54.406 18.1879 54.9126 17.3348 54.9878 16.3179C54.9915 16.288 54.9957 16.2574 54.9982 16.2275L54.9933 16.2226C54.9976 16.1663 55 16.1101 55 16.0533C55 15.4428 54.8259 14.8317 54.5643 14.396ZM27.519 15.5302H25.7736V15.7911V16.3148V16.8386V17.798H22.9063L21.2374 15.8785L21.2319 15.8846L21.1506 15.7905L19.2311 17.7974H13.6474V11.6906H19.3179L20.867 13.3876L21.1927 13.7427L21.2367 13.6968L23.0689 11.6906H27.6925C28.5896 11.6906 29.5949 11.9118 29.9756 12.8248C30.0215 13.0057 30.0477 13.2067 30.0477 13.4347C30.0484 15.1806 28.8267 15.5302 27.519 15.5302ZM36.2432 15.4428C36.4174 15.7037 36.5047 16.0533 36.5047 16.577V17.798H35.0216V17.0133C35.0216 16.6638 35.0216 16.0533 34.7594 15.7911C34.5852 15.5302 34.2357 15.5302 33.7126 15.5302H32.1426V17.798H30.6595V11.6038H33.9747C34.672 11.6038 35.2831 11.6038 35.7201 11.8653C36.1558 12.1275 36.5047 12.5638 36.5047 13.2617C36.5047 14.2212 35.8942 14.7449 35.4579 14.9197C35.8942 15.0932 36.1558 15.268 36.2432 15.4428ZM42.2632 12.9122H38.8606V14.0464H42.1759V15.268H38.8606V16.4896H42.2632V17.798H37.3774V11.6038H42.2632V12.9122ZM45.9269 17.798H43.1347V16.4896H45.9269C46.1878 16.4896 46.3632 16.4896 46.538 16.3148C46.6254 16.2275 46.7121 16.0533 46.7121 15.8785C46.7121 15.7037 46.6254 15.5302 46.538 15.4428C46.4506 15.3554 46.2758 15.268 46.0142 15.268C44.6185 15.1806 42.9605 15.268 42.9605 13.3491C42.9605 12.4765 43.4842 11.517 45.0542 11.517H47.9331V13.0002H45.229C44.9674 13.0002 44.7926 13.0002 44.6179 13.0876C44.4437 13.175 44.4437 13.3497 44.4437 13.5239C44.4437 13.7855 44.6179 13.8728 44.792 13.9596C44.9668 14.047 45.141 14.047 45.3157 14.047H46.101C46.8863 14.047 47.4094 14.2218 47.7584 14.5707C48.0199 14.8323 48.1947 15.2686 48.1947 15.8791C48.1953 17.1869 47.41 17.798 45.9269 17.798ZM53.4301 17.1869C53.0817 17.5365 52.4706 17.798 51.598 17.798H48.807V16.4896H51.598C51.8595 16.4896 52.0349 16.4896 52.2091 16.3148C52.2959 16.2275 52.3839 16.0533 52.3839 15.8785C52.3839 15.7037 52.2965 15.5302 52.2091 15.4428C52.1217 15.3554 51.9475 15.268 51.6853 15.268C50.2902 15.1806 48.6316 15.268 48.6316 13.3491C48.6316 12.5198 49.1058 11.7706 50.2761 11.5482C50.4161 11.5286 50.564 11.5164 50.7259 11.5164H53.6055V12.9996H51.686H50.9881H50.9007C50.6391 12.9996 50.4644 12.9996 50.2902 13.087C50.2022 13.1743 50.1148 13.3491 50.1148 13.5233C50.1148 13.7848 50.2022 13.8722 50.4644 13.959C50.6385 14.0464 50.8133 14.0464 50.9881 14.0464H51.0749H51.7734C52.1547 14.0464 52.4431 14.0935 52.7071 14.1863C52.9485 14.2737 53.7485 14.6318 53.9275 15.5656C53.9428 15.6634 53.9544 15.7655 53.9544 15.8785C53.9532 16.4022 53.7784 16.8386 53.4301 17.1869Z" fill="#306FC5"/>
</svg>
