<svg width="95" height="26" viewBox="0 0 95 26" fill="none" xmlns="http://www.w3.org/2000/svg">
<g clip-path="url(#clip0_202_8)">
<path d="M38.3729 0H12.811V26H38.3729V0Z" fill="white"/>
<path d="M51.1539 13.0306L38.3729 0V26.0306L51.1539 13.0306Z" fill="#DB0011"/>
<path d="M25.592 13.0306L38.3729 0H12.811L25.592 13.0306Z" fill="#DB0011"/>
<path d="M0 13.0306L12.811 26.0306V0L0 13.0306Z" fill="#DB0011"/>
<path d="M25.592 13.0306L12.811 26.0306H38.3729L25.592 13.0306Z" fill="#DB0011"/>
<path d="M62.371 13.7953H57.7398V18.4447H55.4242V7.5553H57.7398V12.0212H62.371V7.5553H64.6866V18.4447H62.371V13.7953Z" fill="black"/>
<path d="M70.2802 18.6588C67.9646 18.6588 66.07 17.7105 66.0399 15.1105H68.3555C68.3856 16.2729 69.0472 16.9764 70.3103 16.9764C71.2425 16.9764 72.3251 16.487 72.3251 15.4164C72.3251 14.5599 71.6034 14.3152 70.4005 13.9482L69.6186 13.7341C67.9345 13.2446 66.2504 12.5717 66.2504 10.6141C66.2504 8.19759 68.4758 7.3717 70.4907 7.3717C72.5657 7.3717 74.3701 8.10582 74.4002 10.5223H72.0845C71.9943 9.54347 71.4229 8.96229 70.3403 8.96229C69.4682 8.96229 68.6262 9.42112 68.6262 10.3999C68.6262 11.1952 69.3479 11.4399 70.8516 11.9294L71.7538 12.2046C73.5882 12.7858 74.761 13.4282 74.761 15.2635C74.731 17.7105 72.3853 18.6588 70.2802 18.6588Z" fill="black"/>
<path d="M76.0541 7.58586H79.7832C80.4748 7.55527 81.1966 7.58586 81.8883 7.70822C83.1814 8.0141 84.1738 8.87057 84.1738 10.3388C84.1738 11.7459 83.3017 12.4494 82.0386 12.7859C83.4821 13.0612 84.5647 13.7953 84.5647 15.4165C84.5647 17.8941 82.1589 18.4447 80.2944 18.4447H76.0842L76.0541 7.58586ZM79.7832 12.1129C80.8056 12.1129 81.8582 11.8988 81.8582 10.6447C81.8582 9.51292 80.8959 9.20704 79.9335 9.20704H78.3096V12.1129H79.7832ZM79.9937 16.8235C81.0763 16.8235 82.1288 16.5788 82.1288 15.2329C82.1288 13.887 81.2267 13.6423 80.114 13.6423H78.2795V16.8235H79.9937Z" fill="black"/>
<path d="M90.5793 18.6588C87.1209 18.6588 85.5872 16.4259 85.5872 13.0918C85.5872 9.75766 87.3014 7.34119 90.6996 7.34119C92.8348 7.34119 94.9098 8.32001 94.9699 10.7671H92.5641C92.4438 9.66589 91.7221 9.1153 90.6996 9.1153C88.5945 9.1153 87.963 11.4094 87.963 13.153C87.963 14.8965 88.5945 16.9153 90.6094 16.9153C91.6619 16.9153 92.4438 16.3341 92.5942 15.233H95C94.7594 17.7412 92.8047 18.6588 90.5793 18.6588Z" fill="black"/>
</g>
<defs>
<clipPath id="clip0_202_8">
<rect width="95" height="26" fill="white"/>
</clipPath>
</defs>
</svg>
