<svg width="146" height="126" viewBox="0 0 146 126" fill="none" xmlns="http://www.w3.org/2000/svg">
<path fill-rule="evenodd" clip-rule="evenodd" d="M139.6 65.9965C142.356 68.0059 145.198 69.4795 145.198 72.6755C145.198 73.6037 144.002 74.5223 141.342 74.5223C139.323 74.5223 137.122 73.9673 136.108 72.4937C135.285 71.3933 136.481 69.9293 135.744 68.8384C135.189 67.9198 133.907 68.3695 133.074 67.9198C132.069 67.3648 131.983 66.9151 131.333 65.5372C130.605 63.8913 128.118 61.1451 125.18 58.217C122.702 55.7482 120.041 54.466 118.845 54.5617C118.013 54.6478 117.735 54.6478 116.912 54.6478C114.798 54.6478 112.96 56.6668 109.927 57.9395C107.822 58.8581 106.626 59.4035 105.248 59.5949L104.789 60.1403L107.544 60.0542C110.109 60.0542 113.515 59.681 116.08 59.681C118.759 59.681 120.041 62.0637 121.056 64.5324C123.075 69.5657 126.108 76.7997 129.687 82.8377C131.428 85.6796 132.902 87.5169 132.902 90.9999C132.902 92.1003 132.806 93.5644 131.333 93.5644C129.314 93.5644 124.175 91.4592 124.175 89.1627C124.175 87.4212 125.553 86.6844 125.553 84.9428C125.553 83.852 123.898 84.0338 123.534 83.029C122.242 77.6322 120.683 72.3119 117.649 69.1063C116.08 67.4605 115.898 66.7237 114.338 66.7237C113.515 66.7237 112.683 66.9151 111.946 67.1926C107.726 68.7427 102.129 73.4219 95.1528 75.5271C92.4831 76.35 92.0238 74.7903 89.2775 75.3453H89.4593C87.2394 75.795 85.4978 77.0772 82.4645 77.9001C78.2446 79.0962 70.9914 79.6417 65.2023 78.9144C61.0781 78.3594 55.7386 77.5365 53.4421 77.6322C51.7006 82.6654 47.9305 89.2584 42.4284 91.8324C39.4907 93.1051 38.5721 94.9327 39.4907 98.2244C40.5911 102.339 44.2656 105.363 46.1889 108.846C47.9305 111.86 50.782 116.625 53.8057 118.175C56.8391 119.735 58.6859 122.022 58.6859 123.936C58.6859 124.855 58.3127 125.4 57.3941 125.4H51.337C50.4088 125.4 49.9495 124.855 49.7677 124.481C48.9448 122.931 49.4902 121.467 48.3993 120.099C47.5668 119.094 46.9257 119.362 45.9114 118.549C44.0742 116.807 45.4521 115.802 44.0742 113.592C40.2179 107.564 38.5721 106.1 35.357 101.794C33.5197 99.5066 31.3189 98.4062 31.3189 95.392C31.3189 91.7367 34.9838 91.0956 34.8977 87.4212C32.5054 89.1627 29.7496 90.5406 25.5202 91.0956C24.9652 91.1817 23.5011 92.2821 22.86 93.0189C21.3864 94.4734 20.841 95.9375 20.6496 98.1383C20.1903 103.076 19.1856 108.109 19.8267 113.047C20.6496 116.262 21.2046 117.353 23.8648 119.094C25.5202 120.185 27.4531 121.745 27.6349 124.032C27.6349 124.663 27.4531 125.4 26.5249 125.4H20.0085C19.3674 125.4 18.822 124.941 18.6306 124.577C17.8938 123.295 18.3531 122.386 18.0852 120.922C17.4345 117.908 14.0375 118.089 14.0375 114.979C14.0375 114.051 14.5925 112.865 14.6882 110.941C14.87 106.741 16.1522 99.9659 14.87 91.7367C14.315 86.9619 19.2717 86.78 21.8457 82.5697C23.4054 80.1871 22.9461 81.2014 23.8648 79.4599C24.7834 77.6322 24.6016 76.35 24.5154 75.2496C24.5154 73.8716 23.1279 70.934 24.0561 64.9917C24.4197 62.3316 25.702 59.681 27.4531 57.3941C27.4531 57.2984 27.4531 56.9348 26.8981 56.9348C24.3241 57.1261 24.3241 56.4754 22.5825 56.4754C20.9271 56.4754 19.6449 57.8534 19.3674 58.5806C18.5445 58.217 18.1808 57.2984 18.1808 56.7529C18.1808 55.8343 18.3531 55.0114 19.2717 54.1024C19.6449 53.7387 19.2717 53.5474 18.822 53.5474C16.7934 53.5474 14.87 56.0161 14.4107 57.7577C13.2146 57.5759 13.1285 56.0161 12.5735 56.0161C12.0281 56.0161 11.6549 56.8486 11.6549 57.6716C11.6549 63.5277 21.2046 64.8099 21.2046 72.4937C21.2046 81.3832 10.4588 79.546 10.4588 82.7516C10.4588 83.3927 10.9181 83.9381 11.7506 84.3113C11.3774 85.1342 10.4588 85.4978 9.45404 85.4978C7.06182 85.4978 5.32029 83.7659 5.32029 81.3832C5.32029 76.5318 11.8367 76.4361 11.8367 72.7712C11.8367 71.0297 10.7363 70.4747 9.72197 69.6613C3.48307 65.2597 0 60.8676 0 53.6431C0 45.8636 5.40641 39.9022 12.4874 39.9022C22.7643 39.9022 23.0418 51.7197 32.4193 52.7245C35.9024 50.3514 40.0361 48.9735 44.0742 48.9735C50.1409 48.9735 52.801 50.5332 59.2313 50.5332C61.8149 50.5332 66.1304 49.7964 71.2689 46.3229C73.1923 45.0407 74.0247 44.7727 75.7663 43.2034C79.8043 39.7204 83.5745 32.9552 83.5745 28.1038V28.3717C83.5745 26.8215 83.2013 25.9029 82.4645 25.9029C80.2636 25.9029 78.3403 27.922 76.1299 30.0271C74.752 31.4911 76.8667 32.1323 73.7473 33.8642C72.6468 34.4192 71.355 33.4049 70.1685 33.4049C67.6806 33.4049 66.5802 30.4864 66.5802 27.922C66.5802 26.6397 67.5945 26.2665 68.1399 25.08C69.4317 22.6112 69.336 21.7022 70.5321 19.2239C71.2689 17.578 72.5511 16.4776 72.465 15.291C72.465 14.8413 72.0918 14.5542 72.0918 14.1045C72.0918 11.6166 75.4027 9.97076 75.4027 7.50199C75.4027 6.13364 73.8334 5.49253 73.4698 4.39211C73.1061 3.29169 73.3836 3.02376 73.3836 3.02376C73.4698 2.83238 73.6516 2.74626 73.8334 2.74626C75.1252 2.74626 75.6802 4.11461 76.8667 4.85141C76.9624 3.20557 76.4074 2.83238 76.4074 1.64585C76.4074 1.00473 76.3213 0 76.9624 0C77.7853 0 77.6896 1.10042 78.4264 1.64585C79.345 2.37308 80.1775 2.28696 81.1823 2.92807C82.4645 3.751 83.2013 5.11934 83.6606 5.21503C84.9428 5.39684 85.316 3.83712 84.6749 2.92807C86.1389 2.83238 87.6125 4.02849 89.5455 4.02849C92.5788 4.02849 93.5931 4.85142 94.1385 5.30115C96.0714 6.95657 96.435 8.22923 98.5497 8.22923C99.6502 8.22923 100.205 7.32018 100.473 6.95657C101.947 8.04742 102.042 10.7937 100.473 13.0806C101.114 15.0231 103.87 15.1954 105.162 16.114C106.444 17.0326 106.262 17.4823 107.181 18.0373C107.918 18.4966 108.559 18.4009 109.104 18.0373C109.755 20.5922 107.544 22.8887 104.884 23.2523C104.98 26.544 108.463 28.5535 110.023 29.386C109.104 31.3955 107.449 32.0366 105.985 32.4002C106.444 34.4192 108.645 37.3473 107.544 39.9979C106.54 39.5386 105.066 39.9979 105.066 41.4619C105.066 43.1077 107.181 43.9498 104.98 45.1363C103.966 45.6818 103.774 47.1458 105.612 48.5237C108.004 47.8826 110.3 47.9687 112.96 47.9687C114.616 47.9687 116.817 47.5094 118.29 47.5094C121.056 47.5094 122.702 48.6098 124.73 50.8107C129.783 56.2936 134.366 62.0637 139.6 65.9965Z" fill="#231F20"/>
<path fill-rule="evenodd" clip-rule="evenodd" d="M2.92809 49.9877C3.48309 45.232 8.07614 41.28 12.4778 41.28C16.8891 41.28 20.0085 43.9497 21.0228 46.7821C21.3864 48.0644 20.4678 47.6051 20.0085 47.5094C19.0038 47.2414 18.0852 47.1457 16.9752 47.1457C12.851 47.1457 12.1142 49.3466 11.0999 49.3466C10.7363 49.3466 10.6502 49.0691 10.6502 48.8873C10.6502 47.7869 12.0185 47.0596 12.0185 46.2271C12.0185 45.7774 11.7506 45.3181 10.5545 45.3181C6.42073 45.3181 4.4017 51.356 3.30128 51.356C2.84197 51.356 2.84197 50.8106 2.92809 49.9877Z" fill="#6D6E70"/>
<path fill-rule="evenodd" clip-rule="evenodd" d="M80.3498 15.3866C77.9671 14.5541 76.771 16.2096 75.3931 18.4965C73.7377 21.1471 73.1923 22.6111 72.733 25.2617C72.2737 28.1898 74.1109 28.9266 72.9148 29.8452C71.6325 30.8499 71.2593 30.4863 71.7187 29.5677C72.2736 28.2855 72.1875 26.4482 70.6182 27.0032C69.1542 27.4625 67.8624 27.3669 68.4174 26.6396C68.8767 25.8167 69.5178 25.4531 70.3407 22.8886C71.2594 20.4103 71.7187 19.6831 73.6516 16.2096C74.752 14.1044 73.1923 14.2862 73.5559 12.9944C73.9195 11.9897 75.1252 10.7936 75.8524 9.78885C76.6753 8.87981 77.5078 8.50662 78.1489 8.68843C78.8857 8.87981 78.79 9.52092 78.5221 11.0711C78.1489 12.5351 78.3307 13.1762 79.5269 13.6451C80.8186 14.1905 81.2684 15.8364 80.3498 15.3866Z" fill="#6D6E70"/>
<path fill-rule="evenodd" clip-rule="evenodd" d="M128.213 90.1674C128.213 89.3445 129.132 88.0623 129.409 86.1389C130.414 86.9618 131.151 88.8948 131.151 90.1674C131.151 90.7224 131.065 91.3731 130.605 91.3731C129.955 91.3731 128.213 90.8181 128.213 90.1674Z" fill="#6D6E70"/>
<path fill-rule="evenodd" clip-rule="evenodd" d="M140.701 68.647C142.174 69.1063 143.82 71.0296 143.82 72.13C143.82 72.6755 142.72 72.953 141.983 72.953C140.701 72.953 141.715 70.5703 140.701 68.647Z" fill="#6D6E70"/>
<path fill-rule="evenodd" clip-rule="evenodd" d="M89.6411 43.1078C97.8991 35.2422 100.655 19.0421 91.6602 13.0807C89.9186 11.8941 88.4355 11.4348 88.4355 11.1669C88.4355 10.8894 89.7273 10.8894 91.2966 11.5305C104.789 17.3101 101.947 33.7781 97.4398 44.6771C96.3393 47.4233 97.4398 46.6004 100.291 49.8921C103.966 54.0067 102.588 58.3127 102.224 59.2217C101.296 61.4226 101.947 52.734 91.5645 47.9688C88.158 46.4186 86.8757 45.7775 89.6411 43.1078Z" fill="#6D6E70"/>
<path fill-rule="evenodd" clip-rule="evenodd" d="M54.82 123.84C53.7196 123.84 53.6239 121.104 53.3464 120.003C54.3607 120.462 55.5568 121.199 56.198 122.29C56.4659 122.749 56.8391 123.84 56.1023 123.84H54.82Z" fill="#6D6E70"/>
<path fill-rule="evenodd" clip-rule="evenodd" d="M23.3194 123.84C22.2189 123.84 22.0276 121.199 21.7501 120.099C22.7644 120.558 24.0466 121.199 24.6973 122.29C24.9652 122.749 25.5202 123.84 24.7834 123.84H23.3194Z" fill="#6D6E70"/>
<path fill-rule="evenodd" clip-rule="evenodd" d="M57.5758 60.7815C57.394 59.3175 59.8819 59.2218 59.8819 57.7578C59.8819 57.0305 57.4801 55.1072 51.6048 55.1072C43.5287 55.1072 37.8352 57.9396 32.6011 62.8867C29.0223 66.2645 28.1802 70.1112 27.1659 70.1112C26.8023 70.1112 26.6205 70.0251 26.5248 69.0203C25.788 62.5231 31.137 51.3562 45.4521 51.3562C50.2269 51.3562 54.7243 52.9063 59.968 52.9063C62.4464 52.9063 68.5991 51.538 72.6372 48.696C73.4697 48.0645 75.393 46.7823 76.0342 46.323C76.4935 46.1412 76.3116 46.5909 76.0342 47.1459C75.2112 48.5142 74.3883 49.251 73.5558 50.1601C72.2736 51.538 70.8 53.6432 70.3407 55.6526C69.3359 59.9586 68.4173 61.2313 62.7239 61.8724C58.9633 62.3317 57.5758 61.2313 57.5758 60.7815Z" fill="#6D6E70"/>
</svg>
